<svg width="59" height="60" viewBox="0 0 59 60" fill="none" xmlns="http://www.w3.org/2000/svg">
<rect width="59" height="60" rx="12" fill="#3571FF"/>
<path d="M16.2543 48V11.6364H30.6009C33.3471 11.6364 35.6908 12.1276 37.6321 13.1101C39.5852 14.0807 41.0708 15.4598 42.0888 17.2472C43.1186 19.0227 43.6335 21.112 43.6335 23.5149C43.6335 25.9297 43.1127 28.0071 42.071 29.7472C41.0294 31.4754 39.5201 32.8011 37.5433 33.7244C35.5784 34.6477 33.1991 35.1094 30.4055 35.1094H20.7997V28.9304H29.1626C30.6304 28.9304 31.8497 28.7292 32.8203 28.3267C33.791 27.9242 34.513 27.3205 34.9865 26.5156C35.4718 25.7107 35.7145 24.7105 35.7145 23.5149C35.7145 22.3075 35.4718 21.2895 34.9865 20.4609C34.513 19.6323 33.785 19.005 32.8026 18.5788C31.8319 18.1409 30.6068 17.9219 29.1271 17.9219H23.9425V48H16.2543ZM35.892 31.4517L44.9297 48H36.4425L27.6001 31.4517H35.892Z" fill="white"/>
</svg>
